<svg width="32" height="32" viewBox="0 0 32 32" fill="none" xmlns="http://www.w3.org/2000/svg">
<mask id="mask0_451_581" style="mask-type:alpha" maskUnits="userSpaceOnUse" x="0" y="0" width="32" height="32">
<rect width="32" height="32" fill="#D9D9D9"/>
</mask>
<g mask="url(#mask0_451_581)">
<path d="M8.00004 4H22.6667V21.3333L13.3334 30.6667L11.6667 29C11.5112 28.8444 11.3836 28.6333 11.284 28.3667C11.1836 28.1 11.1334 27.8444 11.1334 27.6V27.1333L12.6 21.3333H4.00004C3.28893 21.3333 2.66671 21.0667 2.13337 20.5333C1.60004 20 1.33337 19.3778 1.33337 18.6667V16C1.33337 15.8444 1.3556 15.6778 1.40004 15.5C1.44449 15.3222 1.48893 15.1556 1.53337 15L5.53337 5.6C5.73337 5.15556 6.06671 4.77778 6.53337 4.46667C7.00004 4.15556 7.48893 4 8.00004 4ZM20 6.66667H8.00004L4.00004 16V18.6667H16L14.2 26L20 20.2V6.66667ZM22.6667 21.3333V18.6667H26.6667V6.66667H22.6667V4H29.3334V21.3333H22.6667Z" fill="#1C1B1F"/>
</g>
</svg>
