<svg width="32" height="32" viewBox="0 0 32 32" fill="none" xmlns="http://www.w3.org/2000/svg">
<mask id="mask0_451_578" style="mask-type:alpha" maskUnits="userSpaceOnUse" x="0" y="0" width="32" height="32">
<rect width="32" height="32" fill="#D9D9D9"/>
</mask>
<g mask="url(#mask0_451_578)">
<path d="M24 27.9998H9.33329V10.6665L18.6666 1.33313L20.3333 2.9998C20.4888 3.15535 20.6168 3.36646 20.7173 3.63313C20.8168 3.8998 20.8666 4.15535 20.8666 4.3998V4.86646L19.4 10.6665H28C28.7111 10.6665 29.3333 10.9331 29.8666 11.4665C30.4 11.9998 30.6666 12.622 30.6666 13.3331V15.9998C30.6666 16.1554 30.6444 16.322 30.6 16.4998C30.5555 16.6776 30.5111 16.8442 30.4666 16.9998L26.4666 26.3998C26.2666 26.8442 25.9333 27.222 25.4666 27.5331C25 27.8442 24.5111 27.9998 24 27.9998ZM12 25.3331H24L28 15.9998V13.3331H16L17.8 5.9998L12 11.7998V25.3331ZM9.33329 10.6665V13.3331H5.33329V25.3331H9.33329V27.9998H2.66663V10.6665H9.33329Z" fill="#1C1B1F"/>
</g>
</svg>
